<svg width="14" height="16" viewBox="0 0 14 16" fill="none" xmlns="http://www.w3.org/2000/svg">
<path fill-rule="evenodd" clip-rule="evenodd" d="M11.9 6.54272C11.9 3.59166 10.3329 1.54349 8.30539 0.928773C8.23198 0.731541 8.11597 0.548184 7.95829 0.394328C7.41946 -0.131443 6.57984 -0.131443 6.04101 0.394328C5.88362 0.547908 5.76774 0.730883 5.69431 0.927712C3.66454 1.54004 2.1 3.58359 2.1 6.54272C2.1 8.45747 1.72829 9.53038 1.04017 10.3079C0.925129 10.4379 0.613449 10.7357 0.402301 10.9374C0.302406 11.0328 0.224975 11.1068 0.201575 11.1313L0 11.3436V13.8226H4.2618C4.40589 14.5947 4.80927 15.1112 5.53876 15.5736C6.43612 16.1423 7.56432 16.1423 8.46168 15.5736C9.10547 15.1656 9.53714 14.5385 9.71226 13.8226H14V11.3436L13.7984 11.1313C13.7772 11.109 13.7032 11.038 13.6064 10.9453C13.3959 10.7436 13.0776 10.4387 12.9608 10.3062C12.2722 9.52501 11.9 8.45074 11.9 6.54272ZM8.21595 13.8226H5.72523C5.82413 14.0137 5.9927 14.158 6.26803 14.3325C6.71761 14.6174 7.28283 14.6174 7.73241 14.3325C7.94061 14.2005 8.1033 14.0259 8.21595 13.8226ZM11.9285 11.2879C12.0758 11.455 12.3915 11.7605 12.6004 11.96V12.3687H1.40042V11.9603C1.60767 11.7631 1.92432 11.4579 2.07136 11.2918C3.00637 10.2353 3.50042 8.80926 3.50042 6.54273C3.50042 3.79473 5.13336 2.18994 7.00042 2.18994C8.86221 2.18994 10.5004 3.80301 10.5004 6.54273C10.5004 8.80199 10.9946 10.2284 11.9285 11.2879Z" fill="white"/>
</svg>
